<svg width="24" height="23" viewBox="0 0 24 23" fill="none" xmlns="http://www.w3.org/2000/svg">
<path fill-rule="evenodd" clip-rule="evenodd" d="M11.8333 3.0625C9.54163 3.0625 9.25475 3.07206 8.35475 3.11313C7.45644 3.15419 6.84275 3.29706 6.30613 3.50575C5.74363 3.71725 5.23344 4.04912 4.81156 4.47887C4.3825 4.90026 4.05042 5.41009 3.83844 5.97287C3.63088 6.5095 3.48744 7.12375 3.44638 8.02206C3.40588 8.9215 3.39575 9.20781 3.39575 11.5C3.39575 13.7922 3.40531 14.0785 3.44638 14.9785C3.48744 15.8768 3.63031 16.4905 3.839 17.0271C4.0505 17.5896 4.38238 18.0998 4.81213 18.5217C5.23353 18.9507 5.74335 19.2828 6.30613 19.4948C6.84275 19.7029 7.45644 19.8458 8.35475 19.8869C9.25475 19.9279 9.54163 19.9375 11.8333 19.9375C14.1249 19.9375 14.4118 19.9279 15.3118 19.8869C16.2101 19.8458 16.8238 19.7029 17.3604 19.4942C17.9229 19.2827 18.4331 18.9509 18.8549 18.5211C19.284 18.0997 19.6161 17.5899 19.8281 17.0271C20.0362 16.4905 20.1791 15.8768 20.2201 14.9785C20.2612 14.0785 20.2708 13.7916 20.2708 11.5C20.2708 9.20837 20.2612 8.9215 20.2201 8.0215C20.1791 7.12319 20.0362 6.5095 19.8275 5.97287C19.6157 5.40985 19.2836 4.89981 18.8544 4.47831C18.433 4.04925 17.9232 3.71717 17.3604 3.50519C16.8238 3.29763 16.2095 3.15419 15.3112 3.11313C14.4118 3.07263 14.1254 3.0625 11.8333 3.0625ZM11.8333 4.58294C14.0861 4.58294 14.3533 4.59137 15.2431 4.63188C16.0655 4.66956 16.5121 4.80625 16.8097 4.92269C17.2034 5.07512 17.4847 5.2585 17.78 5.55325C18.0753 5.84856 18.2581 6.12981 18.4106 6.52356C18.5264 6.82113 18.6637 7.26775 18.7014 8.09013C18.7419 8.98 18.7503 9.24719 18.7503 11.5C18.7503 13.7528 18.7419 14.02 18.7014 14.9099C18.6637 15.7323 18.527 16.1789 18.4106 16.4764C18.2755 16.8429 18.0601 17.1745 17.78 17.4468C17.5078 17.7269 17.1762 17.9423 16.8097 18.0773C16.5121 18.1932 16.0655 18.3304 15.2431 18.3681C14.3533 18.4086 14.0866 18.4171 11.8333 18.4171C9.57988 18.4171 9.31325 18.4086 8.42338 18.3681C7.601 18.3304 7.15438 18.1938 6.85681 18.0773C6.49032 17.9423 6.15876 17.7268 5.8865 17.4468C5.60648 17.1745 5.39101 16.8429 5.25594 16.4764C5.14006 16.1789 5.00281 15.7323 4.96513 14.9099C4.92463 14.02 4.91619 13.7528 4.91619 11.5C4.91619 9.24719 4.92463 8.98 4.96513 8.09013C5.00281 7.26775 5.1395 6.82113 5.25594 6.52356C5.40838 6.12981 5.59175 5.84856 5.8865 5.55325C6.15872 5.27315 6.49029 5.05767 6.85681 4.92269C7.15438 4.80681 7.601 4.66956 8.42338 4.63188C9.31325 4.59137 9.58044 4.58294 11.8333 4.58294Z" fill="black"/>
<path fill-rule="evenodd" clip-rule="evenodd" d="M11.8333 14.3154C11.4636 14.3154 11.0975 14.2426 10.7559 14.1011C10.4143 13.9596 10.104 13.7523 9.84255 13.4908C9.58112 13.2294 9.37375 12.9191 9.23226 12.5775C9.09078 12.2359 9.01796 11.8698 9.01796 11.5001C9.01796 11.1304 9.09078 10.7643 9.23226 10.4227C9.37375 10.0812 9.58112 9.77081 9.84255 9.50938C10.104 9.24796 10.4143 9.04058 10.7559 8.8991C11.0975 8.75762 11.4636 8.68479 11.8333 8.68479C12.5799 8.68479 13.296 8.98141 13.824 9.50938C14.352 10.0374 14.6486 10.7534 14.6486 11.5001C14.6486 12.2468 14.352 12.9629 13.824 13.4908C13.296 14.0188 12.5799 14.3154 11.8333 14.3154ZM11.8333 7.16323C10.6831 7.16323 9.57996 7.62015 8.76664 8.43347C7.95332 9.2468 7.4964 10.3499 7.4964 11.5001C7.4964 12.6503 7.95332 13.7534 8.76664 14.5667C9.57996 15.3801 10.6831 15.837 11.8333 15.837C12.9835 15.837 14.0866 15.3801 14.8999 14.5667C15.7132 13.7534 16.1701 12.6503 16.1701 11.5001C16.1701 10.3499 15.7132 9.2468 14.8999 8.43347C14.0866 7.62015 12.9835 7.16323 11.8333 7.16323ZM17.4318 7.08448C17.4318 7.35637 17.3238 7.61712 17.1316 7.80938C16.9393 8.00163 16.6786 8.10964 16.4067 8.10964C16.1348 8.10964 15.874 8.00163 15.6818 7.80938C15.4895 7.61712 15.3815 7.35637 15.3815 7.08448C15.3815 6.81259 15.4895 6.55184 15.6818 6.35959C15.874 6.16733 16.1348 6.05933 16.4067 6.05933C16.6786 6.05933 16.9393 6.16733 17.1316 6.35959C17.3238 6.55184 17.4318 6.81259 17.4318 7.08448Z" fill="black"/>
</svg>
