<svg width="272" height="70" viewBox="0 0 272 70" fill="none" xmlns="http://www.w3.org/2000/svg">
<path d="M93.5692 3.7094C94.7002 3.7094 95.6581 3.74406 96.4429 3.81338C97.2507 3.8596 97.9894 3.94047 98.6587 4.05601C99.3281 4.17154 100.021 4.33329 100.736 4.54126L100.321 8.42327C99.5589 8.37705 98.8549 8.34239 98.2086 8.31929C97.5854 8.29618 96.9045 8.28462 96.1659 8.28462C95.4504 8.26152 94.5848 8.24996 93.5692 8.24996C92.392 8.24996 91.4688 8.48103 90.7994 8.94318C90.1531 9.40532 89.6915 10.2141 89.4145 11.3694C89.1375 12.5017 88.999 14.073 88.999 16.0833C88.999 18.0936 89.1375 19.6765 89.4145 20.8318C89.6915 21.9641 90.1531 22.7613 90.7994 23.2234C91.4688 23.6856 92.392 23.9166 93.5692 23.9166C95.1618 23.9166 96.5006 23.8935 97.5854 23.8473C98.6703 23.8011 99.7436 23.7202 100.805 23.6047L101.255 27.4867C100.147 27.8333 99.0165 28.0759 97.8624 28.2146C96.7083 28.3763 95.2773 28.4572 93.5692 28.4572C91.0995 28.4572 89.1144 28.0644 87.6141 27.2787C86.1369 26.47 85.0636 25.1644 84.3942 23.3621C83.7479 21.5597 83.4248 19.1335 83.4248 16.0833C83.4248 13.0332 83.7479 10.6069 84.3942 8.80454C85.0636 7.00218 86.1369 5.70817 87.6141 4.92253C89.1144 4.11378 91.0995 3.7094 93.5692 3.7094Z" fill="white"/>
<path d="M108.28 10.9188L108.903 14.3156L109.388 14.7662V28.0413H104.264V10.9188H108.28ZM116.624 10.4683L116.139 15.2168H114.72C113.912 15.2168 113.069 15.3323 112.192 15.5634C111.315 15.7945 110.207 16.1411 108.869 16.6032L108.522 13.7264C109.723 12.6634 110.934 11.8547 112.158 11.3001C113.381 10.7455 114.57 10.4683 115.724 10.4683H116.624Z" fill="white"/>
<path d="M126.87 10.4683C129.756 10.4683 131.821 10.9651 133.068 11.9587C134.337 12.9292 134.972 14.3849 134.972 16.3259C134.995 17.8972 134.603 19.0757 133.795 19.8613C132.987 20.6239 131.591 21.0051 129.606 21.0051H120.05V18.1283H128.186C128.971 18.1283 129.467 17.9665 129.675 17.643C129.906 17.2964 130.021 16.8227 130.021 16.2219C129.998 15.4132 129.756 14.8586 129.294 14.5582C128.855 14.2347 128.105 14.073 127.044 14.073C126.097 14.073 125.359 14.2001 124.828 14.4542C124.297 14.7084 123.928 15.1937 123.72 15.91C123.512 16.6263 123.408 17.6661 123.408 19.0295C123.408 20.4621 123.535 21.5713 123.789 22.3569C124.043 23.1194 124.47 23.6509 125.07 23.9513C125.693 24.2517 126.547 24.4019 127.632 24.4019C128.417 24.4019 129.386 24.3788 130.54 24.3326C131.718 24.2632 132.895 24.1593 134.072 24.0206L134.557 27.1748C133.887 27.4983 133.126 27.7524 132.272 27.9373C131.418 28.1222 130.54 28.2492 129.64 28.3186C128.74 28.411 127.874 28.4572 127.044 28.4572C124.874 28.4572 123.12 28.1453 121.781 27.5214C120.465 26.8744 119.507 25.8923 118.907 24.5752C118.33 23.2581 118.042 21.5713 118.042 19.5147C118.042 17.2733 118.342 15.4941 118.942 14.177C119.542 12.8598 120.488 11.9125 121.781 11.3348C123.073 10.7571 124.77 10.4683 126.87 10.4683Z" fill="white"/>
<path d="M147.348 10.4683C148.779 10.4683 149.991 10.6647 150.983 11.0575C151.976 11.4272 152.726 12.0742 153.234 12.9985C153.765 13.8997 154.03 15.1475 154.03 16.7419V28.0413H149.945L149.218 24.3326L148.871 23.8127V16.7072C148.871 15.8984 148.675 15.3092 148.283 14.9395C147.914 14.5698 147.198 14.3849 146.136 14.3849C145.259 14.3849 144.163 14.4196 142.847 14.4889C141.531 14.5351 140.181 14.6044 138.796 14.6969L138.312 11.3001C139.142 11.1384 140.1 10.9997 141.185 10.8842C142.27 10.7686 143.355 10.6762 144.44 10.6069C145.525 10.5145 146.494 10.4683 147.348 10.4683ZM151.918 17.5044L151.884 20.3812L144.267 20.4159C143.643 20.4159 143.193 20.5661 142.916 20.8665C142.662 21.1669 142.536 21.5713 142.536 22.0796V22.9115C142.536 23.4892 142.697 23.9397 143.02 24.2632C143.343 24.5636 143.863 24.7138 144.578 24.7138C145.178 24.7138 145.825 24.5867 146.517 24.3326C147.233 24.0784 147.937 23.7202 148.629 23.2581C149.322 22.7959 149.933 22.2529 150.464 21.629V23.8473C150.256 24.1939 149.945 24.633 149.529 25.1644C149.137 25.6728 148.629 26.1811 148.006 26.6895C147.383 27.1748 146.656 27.5907 145.825 27.9373C144.994 28.2839 144.047 28.4572 142.986 28.4572C141.947 28.4572 141.012 28.2723 140.181 27.9026C139.35 27.5329 138.692 26.9899 138.208 26.2736C137.723 25.5573 137.481 24.6676 137.481 23.6047V21.837C137.481 20.4737 137.942 19.4107 138.866 18.6482C139.789 17.8857 141.058 17.5044 142.674 17.5044H151.918Z" fill="white"/>
<path d="M164.739 6.17032V22.5649C164.739 23.1888 164.878 23.6394 165.155 23.9166C165.455 24.1708 165.94 24.2979 166.609 24.2979H168.825L169.379 27.764C168.963 27.9026 168.456 28.0182 167.855 28.1106C167.255 28.2261 166.655 28.307 166.055 28.3532C165.455 28.4225 164.947 28.4572 164.532 28.4572C162.985 28.4572 161.773 28.0413 160.896 27.2094C160.042 26.3776 159.615 25.2106 159.615 23.7087L159.581 6.17032H164.739ZM169.517 10.9188V14.2809H156.603V11.0921L159.927 10.9188H169.517Z" fill="white"/>
<path d="M177.486 10.9188V28.0413H172.396V10.9188H177.486ZM176.066 3.36279C177.082 3.36279 177.59 3.8827 177.59 4.92253V6.75955C177.59 7.79937 177.082 8.31929 176.066 8.31929H173.851C172.835 8.31929 172.327 7.79937 172.327 6.75955V4.92253C172.327 3.8827 172.835 3.36279 173.851 3.36279H176.066Z" fill="white"/>
<path d="M199.068 10.9188L193.425 26.8281C193.286 27.1979 193.067 27.4983 192.767 27.7293C192.49 27.9373 192.155 28.0413 191.763 28.0413H187.297C186.904 28.0413 186.558 27.9373 186.258 27.7293C185.981 27.4983 185.773 27.1979 185.635 26.8281L179.991 10.9188H185.427L188.578 21.629C188.716 22.1374 188.843 22.6573 188.959 23.1888C189.074 23.7202 189.189 24.2286 189.305 24.7138H189.755C189.893 24.2055 190.02 23.6971 190.136 23.1888C190.274 22.6573 190.413 22.1374 190.551 21.629L193.633 10.9188H199.068Z" fill="white"/>
<path d="M209.234 10.4683C212.119 10.4683 214.185 10.9651 215.432 11.9587C216.701 12.9292 217.336 14.3849 217.336 16.3259C217.359 17.8972 216.967 19.0757 216.159 19.8613C215.351 20.6239 213.954 21.0051 211.969 21.0051H202.414V18.1283H210.55C211.335 18.1283 211.831 17.9665 212.039 17.643C212.269 17.2964 212.385 16.8227 212.385 16.2219C212.362 15.4132 212.119 14.8586 211.658 14.5582C211.219 14.2347 210.469 14.073 209.407 14.073C208.461 14.073 207.722 14.2001 207.191 14.4542C206.661 14.7084 206.291 15.1937 206.084 15.91C205.876 16.6263 205.772 17.6661 205.772 19.0295C205.772 20.4621 205.899 21.5713 206.153 22.3569C206.407 23.1194 206.834 23.6509 207.434 23.9513C208.057 24.2517 208.911 24.4019 209.996 24.4019C210.781 24.4019 211.75 24.3788 212.904 24.3326C214.081 24.2632 215.259 24.1593 216.436 24.0206L216.92 27.1748C216.251 27.4983 215.489 27.7524 214.635 27.9373C213.781 28.1222 212.904 28.2492 212.004 28.3186C211.104 28.411 210.238 28.4572 209.407 28.4572C207.238 28.4572 205.483 28.1453 204.145 27.5214C202.829 26.8744 201.871 25.8923 201.271 24.5752C200.694 23.2581 200.405 21.5713 200.405 19.5147C200.405 17.2733 200.706 15.4941 201.306 14.177C201.906 12.8598 202.852 11.9125 204.145 11.3348C205.437 10.7571 207.134 10.4683 209.234 10.4683Z" fill="white"/>
<path d="M92.1151 37.2745C93.2922 37.2745 94.5733 37.3438 95.9582 37.4824C97.3431 37.598 98.6934 37.8522 100.009 38.245L99.6628 41.7457C98.6472 41.7226 97.4585 41.6995 96.0967 41.6764C94.7348 41.6533 93.3961 41.6417 92.0804 41.6417C91.4342 41.6417 90.8802 41.6648 90.4186 41.7111C89.98 41.7342 89.6222 41.8266 89.3453 41.9883C89.0683 42.127 88.8721 42.3465 88.7567 42.6469C88.6413 42.9473 88.5836 43.3632 88.5836 43.8947C88.5836 44.7034 88.7682 45.2927 89.1375 45.6624C89.5299 46.0321 90.1877 46.3672 91.111 46.6676L95.7158 48.158C97.6316 48.805 98.9588 49.683 99.6974 50.7922C100.436 51.9013 100.805 53.3571 100.805 55.1594C100.805 56.5228 100.644 57.655 100.321 58.5562C99.9975 59.4574 99.4897 60.1622 98.7972 60.6705C98.1048 61.1789 97.193 61.537 96.062 61.745C94.931 61.9761 93.5461 62.0916 91.9073 62.0916C91.1226 62.0916 90.0031 62.0338 88.5489 61.9183C87.0948 61.8259 85.4329 61.5717 83.5633 61.1558L83.9095 57.4124C85.2713 57.4355 86.4485 57.4702 87.441 57.5164C88.4566 57.5395 89.3222 57.5626 90.0377 57.5857C90.7532 57.5857 91.3765 57.5857 91.9073 57.5857C92.8306 57.5857 93.5461 57.5279 94.0539 57.4124C94.5848 57.2969 94.9541 57.0658 95.1619 56.7192C95.3696 56.3726 95.4735 55.8758 95.4735 55.2288C95.4735 54.6742 95.3927 54.2352 95.2311 53.9117C95.0926 53.5651 94.8502 53.2993 94.504 53.1145C94.1809 52.9065 93.7308 52.7216 93.1537 52.5599L88.3066 50.8962C86.4831 50.2261 85.1906 49.348 84.4289 48.262C83.6672 47.1759 83.2863 45.7433 83.2863 43.964C83.2863 42.5776 83.4479 41.4569 83.771 40.6019C84.1173 39.7238 84.6366 39.0422 85.329 38.5569C86.0446 38.0717 86.9563 37.7366 88.0642 37.5518C89.1952 37.3669 90.5455 37.2745 92.1151 37.2745Z" fill="white"/>
<path d="M109.424 44.5186V61.641H104.335V44.5186H109.424ZM108.005 36.9625C109.02 36.9625 109.528 37.4824 109.528 38.5223V40.3593C109.528 41.3991 109.02 41.919 108.005 41.919H105.789C104.773 41.919 104.265 41.3991 104.265 40.3593V38.5223C104.265 37.4824 104.773 36.9625 105.789 36.9625H108.005Z" fill="white"/>
<path d="M121.382 44.068C123.367 44.068 124.936 44.2529 126.09 44.6226C127.268 44.9923 128.11 45.57 128.618 46.3556C129.149 47.1413 129.414 48.1926 129.414 49.5097C129.414 50.7806 129.16 51.8205 128.652 52.6292C128.145 53.4149 127.291 53.9925 126.09 54.3623C124.913 54.732 123.332 54.9168 121.347 54.9168C119.362 54.9168 117.769 54.732 116.569 54.3623C115.392 53.9925 114.538 53.4149 114.007 52.6292C113.499 51.8436 113.245 50.8037 113.245 49.5097C113.245 48.2157 113.499 47.1759 114.007 46.3903C114.538 45.5815 115.404 44.9923 116.604 44.6226C117.804 44.2529 119.397 44.068 121.382 44.068ZM121.347 47.2221C120.078 47.2221 119.2 47.3954 118.716 47.742C118.231 48.0655 117.989 48.6548 117.989 49.5097C117.989 50.3647 118.231 50.9655 118.716 51.3121C119.2 51.6587 120.078 51.832 121.347 51.832C122.617 51.832 123.482 51.6587 123.944 51.3121C124.405 50.9655 124.636 50.3647 124.636 49.5097C124.636 48.6548 124.405 48.0655 123.944 47.742C123.482 47.3954 122.617 47.2221 121.347 47.2221ZM131.388 44.5186L131.111 46.7022L126.54 47.2915L125.294 44.5186H131.388ZM116.188 53.877L118.75 54.3276C118.427 54.5125 118.196 54.8013 118.058 55.1941C117.942 55.5869 117.977 55.9566 118.162 56.3033C118.346 56.6499 118.75 56.8578 119.374 56.9271L125.675 57.655C127.475 57.8399 128.745 58.3482 129.483 59.1801C130.222 59.9888 130.591 61.1789 130.591 62.7502C130.591 64.229 130.291 65.3613 129.691 66.1469C129.091 66.9557 128.133 67.5102 126.817 67.8106C125.502 68.111 123.748 68.2612 121.555 68.2612C119.754 68.2612 118.266 68.1688 117.088 67.9839C115.934 67.8222 115.011 67.5449 114.319 67.1521C113.649 66.7593 113.176 66.2393 112.899 65.5923C112.645 64.9685 112.518 64.1828 112.518 63.2354C112.518 62.5191 112.645 61.9067 112.899 61.3984C113.153 60.8669 113.58 60.3932 114.18 59.9773C114.803 59.5614 115.669 59.1801 116.777 58.8335L119.304 57.9323L121.139 58.6602L119.754 59.5614C119.177 59.9773 118.704 60.3355 118.335 60.6359C117.989 60.9131 117.735 61.1904 117.573 61.4677C117.435 61.745 117.365 62.1147 117.365 62.5769C117.365 63.1083 117.481 63.5127 117.712 63.79C117.942 64.0904 118.358 64.2868 118.958 64.3792C119.581 64.4948 120.424 64.5525 121.486 64.5525C122.593 64.5525 123.459 64.4948 124.082 64.3792C124.705 64.2868 125.132 64.1019 125.363 63.8246C125.617 63.5474 125.744 63.1545 125.744 62.6462C125.744 62.2071 125.652 61.8836 125.467 61.6757C125.306 61.4677 125.017 61.3175 124.602 61.2251C124.209 61.1096 123.655 61.0056 122.94 60.9131L117.573 60.3239C116.673 60.2315 115.969 59.9889 115.461 59.596C114.953 59.2032 114.596 58.7295 114.388 58.1749C114.203 57.5973 114.157 57.0196 114.249 56.4419C114.342 55.8642 114.549 55.3443 114.873 54.8822C115.219 54.42 115.657 54.085 116.188 53.877Z" fill="white"/>
<path d="M145.792 44.068C149.024 44.068 150.64 45.6508 150.64 48.8165V61.641H145.481V50.4109C145.481 49.6484 145.342 49.1285 145.065 48.8512C144.811 48.5508 144.35 48.4006 143.68 48.4006C142.942 48.4006 142.18 48.5392 141.395 48.8165C140.611 49.0938 139.641 49.5444 138.487 50.1683L138.037 47.4994C139.306 46.3903 140.599 45.5469 141.915 44.9692C143.23 44.3684 144.523 44.068 145.792 44.068ZM139.006 37.3785L139.041 43.3055C139.041 44.2066 138.983 45.0616 138.868 45.8704C138.776 46.6791 138.66 47.3608 138.522 47.9153L139.006 48.3659V61.641H133.882V37.3785H139.006Z" fill="white"/>
<path d="M161.358 39.7701V56.1646C161.358 56.7885 161.497 57.2391 161.774 57.5164C162.074 57.7706 162.559 57.8977 163.228 57.8977H165.444L165.998 61.3637C165.582 61.5024 165.074 61.6179 164.474 61.7103C163.874 61.8259 163.274 61.9067 162.674 61.953C162.074 62.0223 161.566 62.0569 161.151 62.0569C159.604 62.0569 158.392 61.641 157.515 60.8092C156.661 59.9773 156.234 58.8104 156.234 57.3084L156.2 39.7701H161.358ZM166.136 44.5186V47.8807H153.222V44.6919L156.546 44.5186H166.136Z" fill="white"/>
<path d="M186.528 37.2398C187.567 37.2398 188.513 37.2745 189.367 37.3438C190.221 37.4131 191.029 37.5056 191.791 37.6211C192.575 37.7366 193.337 37.9099 194.076 38.141L193.66 41.9883C192.852 41.9421 192.068 41.9075 191.306 41.8844C190.544 41.8613 189.783 41.8497 189.021 41.8497C188.259 41.8266 187.463 41.815 186.632 41.815C185.639 41.815 184.808 41.919 184.139 42.127C183.493 42.335 182.973 42.7278 182.581 43.3055C182.189 43.86 181.9 44.6688 181.716 45.7317C181.554 46.7715 181.473 48.1118 181.473 49.7524C181.473 51.7396 181.6 53.2993 181.854 54.4316C182.108 55.5638 182.535 56.3726 183.135 56.8578C183.735 57.32 184.543 57.551 185.559 57.551C186.251 57.551 186.886 57.4817 187.463 57.3431C188.04 57.2044 188.571 57.0196 189.055 56.7885C189.54 56.5343 189.99 56.2917 190.406 56.0606L190.96 58.5562C190.614 59.0415 190.094 59.5614 189.402 60.1159C188.732 60.6705 187.913 61.1442 186.944 61.537C185.974 61.9299 184.866 62.1263 183.62 62.1263C181.819 62.1263 180.342 61.6988 179.188 60.8438C178.057 59.9889 177.226 58.6486 176.695 56.8232C176.164 54.9746 175.899 52.583 175.899 49.6484C175.899 46.5289 176.234 44.068 176.903 42.2656C177.595 40.4633 178.715 39.1808 180.261 38.4183C181.831 37.6326 183.92 37.2398 186.528 37.2398ZM194.907 47.846V61.641H190.994L190.267 58.0016L189.783 57.0311V47.846H194.907Z" fill="white"/>
<path d="M202.816 44.5186L203.439 47.9153L203.924 48.3659V61.641H198.8V44.5186H202.816ZM211.16 44.068L210.675 48.8165H209.256C208.448 48.8165 207.605 48.9321 206.728 49.1631C205.851 49.3942 204.743 49.7408 203.404 50.203L203.058 47.3261C204.258 46.2632 205.47 45.4544 206.694 44.8999C207.917 44.3453 209.106 44.068 210.26 44.068H211.16Z" fill="white"/>
<path d="M221.441 44.068C223.587 44.068 225.307 44.3684 226.6 44.9692C227.892 45.5469 228.815 46.4943 229.369 47.8114C229.946 49.1285 230.235 50.8962 230.235 53.1145C230.235 55.2865 229.946 57.0311 229.369 58.3482C228.815 59.6654 227.892 60.6127 226.6 61.1904C225.307 61.7681 223.587 62.0569 221.441 62.0569C219.317 62.0569 217.598 61.7681 216.282 61.1904C214.99 60.6127 214.055 59.6654 213.478 58.3482C212.901 57.0311 212.612 55.2865 212.612 53.1145C212.612 50.8962 212.901 49.1285 213.478 47.8114C214.055 46.4943 214.99 45.5469 216.282 44.9692C217.598 44.3684 219.317 44.068 221.441 44.068ZM221.441 47.8114C220.564 47.8114 219.871 47.9616 219.363 48.262C218.856 48.5623 218.498 49.0938 218.29 49.8563C218.082 50.6189 217.979 51.7049 217.979 53.1145C217.979 54.5009 218.082 55.5754 218.29 56.3379C218.498 57.1005 218.856 57.6319 219.363 57.9323C219.871 58.2096 220.564 58.3482 221.441 58.3482C222.318 58.3482 223.01 58.2096 223.518 57.9323C224.026 57.6319 224.384 57.1005 224.591 56.3379C224.799 55.5754 224.903 54.5009 224.903 53.1145C224.903 51.7049 224.799 50.6189 224.591 49.8563C224.384 49.0938 224.026 48.5623 223.518 48.262C223.01 47.9616 222.318 47.8114 221.441 47.8114Z" fill="white"/>
<path d="M238.747 44.5186V55.7833C238.747 56.4997 238.897 57.008 239.197 57.3084C239.52 57.6088 240.028 57.759 240.72 57.759C241.436 57.759 242.14 57.6319 242.832 57.3777C243.548 57.1005 244.425 56.673 245.463 56.0953L245.879 58.9028C244.633 59.9888 243.409 60.7976 242.209 61.3291C241.009 61.8605 239.774 62.1263 238.504 62.1263C235.25 62.1263 233.623 60.5319 233.623 57.3431V44.5186H238.747ZM250.068 44.5186V61.641H246.017L245.429 58.2789L244.944 57.7937V44.5186H250.068Z" fill="white"/>
<path d="M265.502 44.1027C267.649 44.1027 269.184 44.8883 270.107 46.4596C271.03 48.0309 271.492 50.2838 271.492 53.2184C271.492 55.5061 271.249 57.2969 270.765 58.5909C270.303 59.8849 269.588 60.7976 268.618 61.3291C267.672 61.8374 266.483 62.0916 265.052 62.0916C263.829 62.0916 262.663 61.9183 261.555 61.5717C260.447 61.2251 259.466 60.6474 258.612 59.8387L258.958 57.551C259.72 57.7821 260.413 57.9901 261.036 58.1749C261.682 58.3367 262.409 58.4176 263.217 58.4176C263.956 58.4176 264.544 58.2905 264.983 58.0363C265.421 57.7821 265.733 57.2853 265.918 56.5459C266.125 55.7833 266.229 54.6858 266.229 53.2531C266.229 51.8436 266.137 50.7691 265.952 50.0297C265.768 49.2671 265.467 48.7472 265.052 48.4699C264.637 48.1695 264.094 48.0193 263.425 48.0193C262.686 48.0193 262.005 48.1695 261.382 48.4699C260.759 48.7472 260.055 49.1516 259.27 49.683L258.612 47.3261C259.074 46.7022 259.662 46.1476 260.378 45.6624C261.117 45.1771 261.924 44.7959 262.802 44.5186C263.679 44.2413 264.579 44.1027 265.502 44.1027ZM258.404 44.5186L258.889 47.6381L259.374 48.158V59.2841L259.201 59.7C259.27 60.3932 259.316 61.1096 259.339 61.849C259.385 62.6115 259.397 63.3625 259.374 64.1019V68.2266H254.25V44.5186H258.404Z" fill="white"/>
<path d="M20.6814 45.713C21.017 51.3554 21.017 58.3081 20.6814 66.503C13.9697 63.4129 8.80063 59.1476 5.20953 53.673C1.21605 47.4928 -0.462817 40.2384 0.108581 31.8416C0.545013 25.3256 2.75996 19.4825 6.7875 14.2768C10.3445 9.67569 14.8426 6.04786 20.38 3.36169C20.4127 3.39578 20.4468 3.46267 20.5137 3.49549C20.6146 3.52957 20.6474 3.56239 20.6814 3.56239C21.051 10.4141 21.051 17.2659 20.6814 24.1504C17.7954 24.6882 15.6814 24.8561 14.338 24.5203C13.9685 23.9156 13.8007 22.7064 13.9685 20.9265C14.1034 19.0798 14.0353 17.9374 13.8007 17.3997C12.6932 17.7695 11.4848 19.1126 10.1427 21.4971C7.05492 26.9048 6.04836 33.3197 7.22269 40.7749C7.96059 45.9137 10.1087 49.977 13.5989 53.0343C14.0012 52.4965 14.169 51.4223 14.0353 49.7763C13.9344 47.6607 13.9016 46.3163 13.9685 45.7117C16.2175 45.3419 18.4324 45.3419 20.6802 45.7117L20.6814 45.713Z" fill="white"/>
<path d="M45.1806 31.4051C45.4833 43.3616 45.4833 55.3521 45.1806 67.3427C42.3615 68.5179 38.9722 69.0556 34.9774 69.0897C30.9158 69.0897 27.5606 68.5519 24.9092 67.3427C24.4387 62.6065 24.4059 55.2511 24.7415 45.2765C25.9826 44.7059 28.1648 44.6378 31.2854 45.0745C31.4191 45.3775 31.4191 48.5345 31.2854 54.5455C31.1845 59.1138 31.2514 61.632 31.4872 62.0688C31.8896 62.7403 32.8634 63.1102 34.4741 63.0761C35.8162 63.0761 36.9918 62.8741 38.0652 62.4374C38.6354 55.082 38.7363 47.021 38.368 38.3566C37.0587 37.9539 34.8778 37.887 31.7559 37.9539C28.3994 38.0208 26.1176 37.9539 24.9092 37.786C24.5737 19.2795 24.5069 7.15516 24.7415 1.4458C27.4269 0.438486 30.8502 -0.0323578 34.9446 0.00172416C38.8712 0.0358061 42.2606 0.53947 45.1806 1.4458C45.4833 8.96908 45.4833 16.4583 45.1806 23.8818C43.0666 24.2845 40.9185 24.2845 38.7703 23.8818C38.6026 21.8331 38.5358 19.046 38.5358 15.5191C38.5698 10.7502 38.6026 7.89487 38.6026 6.92164C37.9643 6.3839 36.8569 6.04812 35.313 6.0153C33.7691 5.98248 32.5607 6.11628 31.655 6.51896C31.4532 9.1723 31.3863 13.1687 31.4204 18.4085C31.4544 25.2943 31.4872 29.2908 31.4872 30.466C32.2251 30.8017 35.2802 31.0037 40.6157 31.2044L45.1806 31.4064V31.4051Z" fill="white"/>
<path d="M56.8271 61.9685C53.7065 64.387 51.1888 65.8639 49.1416 66.3007V4.36743C49.1416 4.09857 49.3094 3.89786 49.5112 3.79688C58.7065 7.7933 64.7813 14.645 67.7354 24.3849C64.8494 24.6866 62.7353 24.7876 61.392 24.5869C60.8887 24.1501 60.1836 22.8739 59.177 20.8252C58.4051 19.1792 57.4994 18.105 56.4588 17.6342C55.8205 26.1319 55.7209 37.9205 56.0564 53.0339C57.3316 52.4634 58.7747 50.4475 60.4535 46.9888C61.8965 43.9997 62.7025 41.3804 62.7694 39.1967C62.7353 38.794 62.2989 38.592 61.4942 38.592C60.4535 38.592 59.8834 38.5579 59.7484 38.4582C59.3788 36.3426 59.3788 34.1929 59.7484 32.0773C63.004 31.7416 66.2924 31.7416 69.5152 32.0773C70.354 44.5374 66.1259 54.4793 56.8296 61.9685H56.8271Z" fill="white"/>
</svg>
