<svg width="17" height="15" viewBox="0 0 17 15" fill="none" xmlns="http://www.w3.org/2000/svg">
<path fill-rule="evenodd" clip-rule="evenodd" d="M1.13423 6.56166C5.5634 4.6565 8.51688 3.4005 9.99466 2.79366C14.214 1.06102 15.0908 0.760044 15.6622 0.750106C15.7879 0.74792 16.0689 0.778672 16.251 0.924501C16.4047 1.04764 16.447 1.21397 16.4672 1.33072C16.4874 1.44747 16.5126 1.71342 16.4926 1.92122C16.264 4.29308 15.2746 10.0489 14.7713 12.7055C14.5583 13.8295 14.1389 14.2064 13.7329 14.2433C12.8506 14.3235 12.1806 13.6676 11.3261 13.1146C9.98888 12.2492 9.23344 11.7105 7.93544 10.866C6.43538 9.89006 7.4078 9.35367 8.26268 8.47706C8.48641 8.24764 12.3739 4.7567 12.4491 4.44001C12.4585 4.4004 12.4673 4.25277 12.3784 4.17481C12.2896 4.09686 12.1585 4.12351 12.0639 4.14472C11.9297 4.17477 9.79352 5.56876 5.6552 8.32669C5.04884 8.73776 4.49962 8.93805 4.00754 8.92755C3.46506 8.91598 2.42154 8.62473 1.64579 8.37577C0.694308 8.07042 -0.0619137 7.90898 0.00393624 7.39039C0.038235 7.12028 0.414999 6.84404 1.13423 6.56166Z" fill="black"/>
</svg>
