<svg width="24" height="23" viewBox="0 0 24 23" fill="none" xmlns="http://www.w3.org/2000/svg">
<path d="M12.202 3.33472C7.57064 3.33472 3.80153 6.96502 3.79989 11.4266C3.7988 12.8533 4.18638 14.2458 4.92126 15.4722L3.72913 19.6654L8.18358 18.5402C9.42265 19.1883 10.8004 19.5264 12.1987 19.5255H12.202C16.8334 19.5255 20.6025 15.8946 20.6041 11.4331C20.6052 9.272 19.7321 7.23774 18.1453 5.70865C16.559 4.17901 14.4496 3.33526 12.202 3.33472ZM12.202 18.1586H12.1993C10.9462 18.1586 9.71703 17.8342 8.64465 17.2212L8.3888 17.0753L5.7465 17.7427L6.45199 15.2604L6.28596 15.0062C5.58859 13.9426 5.21736 12.6984 5.21794 11.4266C5.21957 7.71786 8.35288 4.70159 12.2047 4.70159C14.0697 4.70214 15.8231 5.40272 17.142 6.67379C18.461 7.94486 19.1866 9.63508 19.1855 11.4325C19.1839 15.1412 16.0511 18.1586 12.2015 18.1586H12.202ZM16.0326 13.1206C15.8225 13.0199 14.7904 12.5305 14.5977 12.4625C14.4056 12.3955 14.2657 12.3607 14.1258 12.5632C13.9864 12.7657 13.5836 13.2213 13.4616 13.3557C13.3386 13.4907 13.2161 13.5071 13.006 13.4064C12.7959 13.3051 12.1193 13.0917 11.318 12.4026C10.6936 11.8669 10.2723 11.205 10.1498 11.002C10.0273 10.8 10.1367 10.6906 10.2418 10.5899C10.336 10.5001 10.4519 10.3542 10.5564 10.236C10.6609 10.1179 10.6958 10.0335 10.7665 9.89855C10.8362 9.76409 10.8014 9.64542 10.7486 9.54472C10.6958 9.44292 10.2766 8.44784 10.1008 8.04339C9.93096 7.64927 9.75786 7.70208 9.62884 7.69554C9.50636 7.6901 9.36701 7.68847 9.22602 7.68847C9.08721 7.68847 8.85913 7.73909 8.66642 7.94159C8.47427 8.14409 7.93154 8.63292 7.93154 9.628C7.93154 10.6236 8.68384 11.585 8.7889 11.72C8.89396 11.8544 10.2695 13.8974 12.3757 14.7738C12.8765 14.9812 13.2673 15.1058 13.5727 15.1995C14.0757 15.3535 14.5335 15.3312 14.8949 15.2795C15.2978 15.2212 16.1371 14.7907 16.3113 14.3187C16.4866 13.8468 16.4866 13.4418 16.4344 13.3574C16.3832 13.273 16.2428 13.2224 16.0326 13.1206Z" fill="black"/>
</svg>
